<svg xmlns="http://www.w3.org/2000/svg" version="1.1" xmlns:xlink="http://www.w3.org/1999/xlink" xmlns:svgjs="http://svgjs.dev/svgjs" width="1000" height="323" viewBox="0 0 1000 323"><g transform="matrix(1,0,0,1,-0.6060606060606233,0.294143395023724)"><svg viewBox="0 0 396 128" data-background-color="#ffffff" preserveAspectRatio="xMidYMid meet" height="323" width="1000" xmlns="http://www.w3.org/2000/svg" xmlns:xlink="http://www.w3.org/1999/xlink"><g id="tight-bounds" transform="matrix(1,0,0,1,0.2400000000000091,-0.11656456521063774)"><svg viewBox="0 0 395.52 128.2331291304213" height="128.2331291304213" width="395.52"><g><svg viewBox="0 0 619.9608520754717 200.99999999999997" height="128.2331291304213" width="395.52"><g><rect width="8.507644528301887" height="200.99999999999997" x="238.8045283018868" y="0" fill="#ffffff" opacity="1" stroke-width="0" stroke="transparent" fill-opacity="1" class="rect-qz-0" data-fill-palette-color="primary" rx="1%" id="qz-0" data-palette-color="#ec9131"></rect></g><g transform="matrix(1,0,0,1,269.5834935849057,0.4999999999999858)"><svg viewBox="0 0 350.37735849056605 200" height="200" width="350.37735849056605"><g id="textblocktransform"><svg viewBox="0 0 350.37735849056605 200" height="200" width="350.37735849056605" id="textblock"><g><svg viewBox="0 0 350.37735849056605 200" height="200" width="350.37735849056605"><g transform="matrix(1,0,0,1,0,0)"><svg width="350.37735849056605" viewBox="2.5 -37.5 186.2 90.70000000000002" height="200" data-palette-color="#ec9131"><svg></svg><svg></svg><g class="wordmark-text-0" data-fill-palette-color="primary" id="text-0"><path d="M5.75-32.25h-3.25v-2.75h10.75c7.2 0 10.8 2.817 10.8 8.45v0c0 2.367-0.9 4.917-2.7 7.65v0c3.167 1.3 4.75 4.15 4.75 8.55v0c0 3.933-0.99 6.64-2.97 8.12-1.987 1.487-5.03 2.23-9.13 2.23v0h-11.5v-2.75h3.25zM15-17.15v0h-5.85v14.4h4.6c1.533 0 2.783-0.083 3.75-0.25 0.967-0.167 1.883-0.5 2.75-1v0c1.633-0.9 2.45-2.95 2.45-6.15v0c0-2.533-0.64-4.333-1.92-5.4-1.287-1.067-3.213-1.6-5.78-1.6zM9.15-19.9h6.1c1.233 0 2.3 0.067 3.2 0.2v0c1.467-2.3 2.2-4.483 2.2-6.55v0c0-4-2.55-6-7.65-6v0h-3.85zM32.6-35h-3.35v-2.5h6.6v35h3.75v2.5h-10.1v-2.5h3.1zM52.53 0.2c-3.487 0-6.303-1-8.45-3-2.153-2-3.23-5.06-3.23-9.18 0-4.113 1.143-7.347 3.43-9.7 2.28-2.347 5.153-3.52 8.62-3.52 3.467 0 6.283 1 8.45 3 2.167 2 3.25 5.057 3.25 9.17 0 4.12-1.14 7.353-3.42 9.7-2.287 2.353-5.17 3.53-8.65 3.53zM52.83-22.3c-2.487 0-4.563 0.9-6.23 2.7-1.667 1.8-2.5 4.24-2.5 7.32 0 3.087 0.793 5.453 2.38 7.1 1.58 1.653 3.62 2.48 6.12 2.48 2.5 0 4.583-0.893 6.25-2.68 1.667-1.78 2.5-4.213 2.5-7.3 0-3.08-0.8-5.453-2.4-7.12-1.6-1.667-3.64-2.5-6.12-2.5zM66.65 5.2v0c0-3 1.783-5.633 5.35-7.9v0c-1.4-1-2.1-2.193-2.1-3.58 0-1.38 0.6-2.503 1.8-3.37v0c-2.467-1.2-3.7-3.633-3.7-7.3v0c0-2.567 0.967-4.583 2.9-6.05 1.933-1.467 4.4-2.2 7.4-2.2v0c0.967 0 1.95 0.083 2.95 0.25v0l9.4-0.25-0.1 1.9h-5.45c1.833 1.367 2.75 3.417 2.75 6.15 0 2.733-0.917 4.85-2.75 6.35-1.833 1.5-4.2 2.25-7.1 2.25v0c-1.867 0-3.417-0.167-4.65-0.5v0c-0.633 0.6-0.95 1.367-0.95 2.3 0 0.933 0.577 1.657 1.73 2.17 1.147 0.52 2.627 0.903 4.44 1.15 1.82 0.253 3.147 0.47 3.98 0.65 0.833 0.187 1.8 0.48 2.9 0.88 1.1 0.4 1.983 0.867 2.65 1.4v0c1.567 1.3 2.35 3.033 2.35 5.2v0c0 1.5-0.35 2.783-1.05 3.85-0.7 1.067-1.667 1.883-2.9 2.45v0c-2.267 1-4.967 1.5-8.1 1.5v0c-4.167 0-7.167-0.717-9-2.15-1.833-1.433-2.75-3.15-2.75-5.15zM69.9 4.85v0c0 1.367 0.667 2.5 2 3.4 1.333 0.9 3.367 1.35 6.1 1.35v0c6.133 0 9.2-1.633 9.2-4.9v0c0-1.633-0.733-2.8-2.2-3.5v0c-1.267-0.633-2.667-1.1-4.2-1.4v0c-3.267-0.467-5.617-0.983-7.05-1.55v0c-2.567 2.1-3.85 4.3-3.85 6.6zM78.15-22.55c-2.067 0-3.733 0.473-5 1.42-1.267 0.953-1.9 2.37-1.9 4.25 0 1.887 0.49 3.303 1.47 4.25 0.987 0.953 2.563 1.43 4.73 1.43 2.167 0 3.873-0.543 5.12-1.63 1.253-1.08 1.88-2.553 1.88-4.42v0c0-3.533-2.1-5.3-6.3-5.3z" fill="#ffffff" fill-rule="nonzero" stroke="none" stroke-width="1" stroke-linecap="butt" stroke-linejoin="miter" stroke-miterlimit="10" stroke-dasharray="" stroke-dashoffset="0" font-family="none" font-weight="none" font-size="none" text-anchor="none" style="mix-blend-mode: normal" data-fill-palette-color="primary" opacity="1"></path><path transform="translate(0,53)" d="M22.9 0l-0.5-2.9c-3.033 2.033-5.9 3.05-8.6 3.05v0c-1.133 0-2.467-0.283-4-0.85v0c-1-0.367-1.8-1.06-2.4-2.08-0.6-1.013-0.9-2.287-0.9-3.82v0-15.9h-3.5v-2.5h6.75v17.4c0 1.167 0.25 2.123 0.75 2.87 0.5 0.753 1.133 1.247 1.9 1.48v0c1.267 0.4 2.283 0.567 3.05 0.5v0c2-0.033 4.317-0.75 6.95-2.15v0-17.6h-3.5v-2.5h6.75v22.5h3.85v2.5zM35.2-22.5h-3.35v-2.5h6.6v2.8c2.733-1.867 5.35-2.85 7.85-2.95v0c2.433 0 4.283 0.483 5.55 1.45v0c0.567 0.433 1.077 1.107 1.53 2.02 0.447 0.92 0.67 2.013 0.67 3.28v0 15.9h3.85v2.5h-10.1v-2.5h3v-14.65c0-3.233-1.9-4.85-5.7-4.85v0c-2.067 0.067-4.283 0.75-6.65 2.05v0 17.45h3.75v2.5h-10.1v-2.5h3.1zM64.65-22.5h-3.35v-2.5h6.6v22.5h3.75v2.5h-10.1v-2.5h3.1zM66.2-31.7c-0.667 0-1.183-0.21-1.55-0.63-0.367-0.413-0.55-0.963-0.55-1.65 0-0.68 0.19-1.23 0.57-1.65 0.387-0.413 0.913-0.62 1.58-0.62 0.667 0 1.21 0.207 1.63 0.62 0.413 0.42 0.62 0.987 0.62 1.7 0 0.72-0.217 1.273-0.65 1.66-0.433 0.38-0.983 0.57-1.65 0.57zM93-22.5h-2.8v-2.5h9.2v2.5h-2.95l-9.05 22.5h-3l-8.35-22.5h-3.4v-2.5h10.55v2.5h-3.5l6.35 18.65zM103.5-11.2v0c0 2.967 0.85 5.123 2.55 6.47 1.7 1.353 3.683 2.03 5.95 2.03v0c1.467 0 2.977-0.143 4.53-0.43 1.547-0.28 2.57-0.537 3.07-0.77v0l0.65 2.35c-0.767 0.5-2.023 0.917-3.77 1.25-1.753 0.333-3.353 0.5-4.8 0.5-1.453 0-2.753-0.15-3.9-0.45-1.153-0.3-2.33-0.833-3.53-1.6-1.2-0.767-2.15-1.967-2.85-3.6-0.7-1.633-1.05-3.633-1.05-6v0c0-4.4 1.133-7.767 3.4-10.1v0c2.367-2.433 5.117-3.65 8.25-3.65 3.133 0 5.527 0.867 7.18 2.6 1.647 1.733 2.47 4.167 2.47 7.3v0c0 0.667-0.05 1.383-0.15 2.15v0h-17.85c-0.1 0.7-0.15 1.35-0.15 1.95zM118.65-15.65v0c0-2.067-0.617-3.66-1.85-4.78-1.233-1.113-2.667-1.67-4.3-1.67v0c-2.233 0-4.083 0.673-5.55 2.02-1.467 1.353-2.45 3.013-2.95 4.98v0h14.65c0-0.2 0-0.383 0-0.55zM131.45-16.75v14.25h4.15v2.5h-10.5v-2.5h3.1v-20h-3.35v-2.5h6.6v6.05c2.633-3.867 5.217-5.833 7.75-5.9v0c0.2 0 0.4 0 0.6 0v0l2.8 0.35-1.3 3c-0.633-0.3-1.45-0.45-2.45-0.45v0c-2.4 0.033-4.867 1.767-7.4 5.2zM148.5-8.05l0.25 4.8c1.4 0.433 2.527 0.65 3.38 0.65 0.847 0 1.403-0.017 1.67-0.05v0c1.733-0.033 3.183-0.4 4.35-1.1 1.167-0.7 1.75-1.683 1.75-2.95 0-1.267-0.457-2.25-1.37-2.95-0.92-0.7-2.03-1.233-3.33-1.6-1.3-0.367-2.6-0.767-3.9-1.2-1.3-0.433-2.407-1.117-3.32-2.05-0.92-0.933-1.38-2.15-1.38-3.65v0c0-2.133 0.817-3.843 2.45-5.13 1.633-1.28 3.7-1.92 6.2-1.92v0c1.867 0 3.75 0.333 5.65 1v0l0.9 0.35v5.75l-2.45 0.35-0.2-4.25c-1.333-0.2-2.45-0.3-3.35-0.3v0c-1.833 0-3.283 0.357-4.35 1.07-1.067 0.72-1.6 1.637-1.6 2.75 0 1.12 0.46 1.997 1.38 2.63 0.913 0.633 2.02 1.133 3.32 1.5 1.3 0.367 2.6 0.773 3.9 1.22 1.3 0.453 2.41 1.187 3.33 2.2 0.913 1.02 1.37 2.347 1.37 3.98v0c0 2.2-0.823 3.94-2.47 5.22-1.653 1.287-3.997 1.93-7.03 1.93-3.033 0-5.55-0.717-7.55-2.15v0-5.75zM170.55-11.2v0c0 2.967 0.85 5.123 2.55 6.47 1.7 1.353 3.683 2.03 5.95 2.03v0c1.467 0 2.977-0.143 4.53-0.43 1.547-0.28 2.57-0.537 3.07-0.77v0l0.65 2.35c-0.767 0.5-2.023 0.917-3.77 1.25-1.753 0.333-3.353 0.5-4.8 0.5-1.453 0-2.753-0.15-3.9-0.45-1.153-0.3-2.33-0.833-3.53-1.6-1.2-0.767-2.15-1.967-2.85-3.6-0.7-1.633-1.05-3.633-1.05-6v0c0-4.4 1.133-7.767 3.4-10.1v0c2.367-2.433 5.117-3.65 8.25-3.65 3.133 0 5.527 0.867 7.18 2.6 1.647 1.733 2.47 4.167 2.47 7.3v0c0 0.667-0.05 1.383-0.15 2.15v0h-17.85c-0.1 0.7-0.15 1.35-0.15 1.95zM185.7-15.65v0c0-2.067-0.617-3.66-1.85-4.78-1.233-1.113-2.667-1.67-4.3-1.67v0c-2.233 0-4.083 0.673-5.55 2.02-1.467 1.353-2.45 3.013-2.95 4.98v0h14.65c0-0.2 0-0.383 0-0.55z" fill="#ffffff" fill-rule="nonzero" stroke="none" stroke-width="1" stroke-linecap="butt" stroke-linejoin="miter" stroke-miterlimit="10" stroke-dasharray="" stroke-dashoffset="0" font-family="none" font-weight="none" font-size="none" text-anchor="none" style="mix-blend-mode: normal" data-fill-palette-color="primary" opacity="1"></path></g></svg></g></svg></g></svg></g></svg></g><g transform="matrix(1,0,0,1,0,34.14677960482352)"><svg viewBox="0 0 216.5332075471698 132.70644079035293" height="132.70644079035293" width="216.5332075471698"><g><svg xmlns="http://www.w3.org/2000/svg" xmlns:xlink="http://www.w3.org/1999/xlink" version="1.1" x="0" y="0" viewBox="0 10.489 50.32900000000001 30.845072375712707" enable-background="new 0 0 50.4 50.4" xml:space="preserve" width="216.5332075471698" height="132.70644079035293" class="icon-icon-0" data-fill-palette-color="accent" id="icon-0"><g fill="#98d3df" data-fill-palette-color="accent"><path d="M40.908 10.513l-3.558 7.969H20.142c-0.874 0-1.584 0.714-1.584 1.587 0 0.253 0.074 0.48 0.18 0.694h10.404v0.769h-9.6c0.003 0.001 0.005 0.005 0.009 0.007h-1.909c-0.874 0-1.584 0.829-1.584 1.705 0 0.875 0.71 1.671 1.584 1.671h1.198c0.291-1.059 1.208-1.386 2.014-1.386H29.1l0.042 0.935h-8.428c-0.688 0-1.245 0.559-1.245 1.246s0.557 1.245 1.245 1.245h12.54l0.001 0.912-4.011-0.007c-0.809 0-1.463 0.661-1.468 1.468 0.003 0.242 0.063 0.481 0.178 0.686 0.12 0.222 0.295 0.404 0.498 0.545 0.238 0.148 0.506 0.224 0.787 0.222l7.25 0.024c0 0 1.256-0.071 1.804-0.2 2.289-0.432 3.237-2.341 3.237-2.341l8.799-17.775L40.908 10.513z" fill="#ffffff" data-fill-palette-color="accent"></path></g><g fill="#98d3df" data-fill-palette-color="accent"><path d="M11.417 22.573c-0.143 0-0.283-0.061-0.383-0.175l-3.4-3.911c-0.186-0.212-0.163-0.534 0.05-0.717 0.212-0.187 0.535-0.164 0.718 0.049l3.401 3.908c0.185 0.213 0.162 0.534-0.05 0.721C11.657 22.53 11.537 22.573 11.417 22.573L11.417 22.573z" fill="#ffffff" data-fill-palette-color="accent"></path><path d="M13.177 19.796c-0.208 0-0.402-0.127-0.479-0.332l-2.21-5.948c-0.099-0.265 0.035-0.559 0.3-0.655 0.262-0.099 0.557 0.036 0.656 0.3l2.21 5.949c0.099 0.264-0.037 0.556-0.3 0.655C13.297 19.786 13.236 19.796 13.177 19.796L13.177 19.796z" fill="#ffffff" data-fill-palette-color="accent"></path><path d="M16.067 18.551c-0.282 0-0.511-0.23-0.511-0.512v-3.74c0-0.281 0.229-0.51 0.511-0.51 0.281 0 0.509 0.229 0.509 0.51v3.74C16.577 18.321 16.349 18.551 16.067 18.551L16.067 18.551z" fill="#ffffff" data-fill-palette-color="accent"></path><path d="M26.365 32.918l-1.888-0.462c-0.008-0.001-0.015 0.002-0.022 0l-7.738-1.887c-0.21-0.054-0.338-0.265-0.287-0.477 0.051-0.212 0.265-0.398 0.476-0.346l6.641 1.62c-0.067-0.77-0.391-1.676-1.435-1.939l-10.247-2.506c-0.267-0.102-0.673-0.306-0.972-0.547-0.776-0.627-1.165-1.168-1.165-1.168L0 14.318v13.448l7.647 12.798c0.216 0.36 0.569 0.57 0.937 0.688 0.444 0.147 0.952 0.088 1.315-0.109 0.856-0.466 0.863-1.8 0.433-2.517l-1.675-2.808 0.015 0.008c0 0-0.407-0.576-0.204-1.197 0.184-0.57 0.805-0.559 1.163-0.502l5.505 1.349 4.548 4.581c0.205 0.208 0.455 0.349 0.718 0.413 0.489 0.118 1.027-0.004 1.416-0.383 0.595-0.583 0.609-1.535 0.027-2.135l-3.98-3.997 0.011 0.001-0.833-0.839c-0.152-0.153-0.151-0.399 0.003-0.556 0.155-0.153 0.403-0.15 0.554 0l1.738 1.752 6.308 1.538c0.809 0.197 1.627-0.294 1.822-1.104C27.669 33.934 27.174 33.117 26.365 32.918z" fill="#ffffff" data-fill-palette-color="accent"></path></g></svg></g></svg></g></svg></g><defs></defs></svg><rect width="395.52" height="128.2331291304213" fill="none" stroke="none" visibility="hidden"></rect></g></svg></g></svg>