<?xml version="1.0" standalone="no"?>
<!DOCTYPE svg PUBLIC "-//W3C//DTD SVG 20010904//EN"
 "http://www.w3.org/TR/2001/REC-SVG-20010904/DTD/svg10.dtd">
<svg version="1.0" xmlns="http://www.w3.org/2000/svg"
 width="700.000000pt" height="700.000000pt" viewBox="0 0 700.000000 700.000000"
 preserveAspectRatio="xMidYMid meet">
<metadata>
Created by potrace 1.14, written by Peter Selinger 2001-2017
</metadata>
<g transform="translate(0.000000,700.000000) scale(0.100000,-0.100000)"
fill="#000000" stroke="none">
<path d="M5275 5225 c-6 -5 -96 -201 -200 -435 -104 -234 -192 -429 -197 -435
-6 -7 -348 -10 -986 -10 -930 -1 -979 -2 -1015 -19 -72 -35 -111 -115 -95
-193 l9 -43 585 0 584 0 0 -43 0 -42 -642 0 c-436 0 -656 -4 -685 -11 -111
-28 -168 -160 -115 -263 43 -81 82 -102 200 -105 l83 -3 19 38 c26 49 82 95
136 108 49 13 993 16 995 4 7 -68 8 -93 2 -94 -5 0 -226 -2 -493 -2 -450 -2
-488 -3 -513 -20 -76 -50 -89 -154 -28 -218 41 -43 33 -42 781 -43 l715 -1 2
-47 c1 -31 -3 -48 -10 -49 -7 -1 -118 -2 -247 -3 -264 -2 -280 -5 -324 -74
-28 -42 -33 -70 -22 -128 8 -45 52 -96 99 -113 26 -10 907 -16 967 -7 14 2 48
7 75 11 106 15 223 74 300 150 56 56 87 110 207 355 97 196 506 1024 787 1589
39 78 71 147 71 151 0 12 -1030 7 -1045 -5z"/>
<path d="M1890 4960 c-11 -11 -20 -27 -20 -37 0 -15 154 -437 232 -636 32 -81
51 -97 97 -82 45 14 38 43 -93 398 -70 188 -132 348 -139 355 -22 22 -57 22
-77 2z"/>
<path d="M2457 4852 c-15 -16 -17 -49 -17 -249 0 -210 2 -231 18 -246 23 -21
52 -22 77 -3 17 12 19 31 19 241 1 207 -1 231 -17 252 -22 28 -58 30 -80 5z"/>
<path d="M700 4053 l1 -747 112 -185 c61 -102 117 -195 123 -206 6 -11 36 -62
67 -113 31 -51 57 -95 57 -98 0 -3 9 -17 19 -32 10 -15 126 -206 256 -424 145
-244 247 -405 263 -416 49 -34 90 -45 143 -39 85 10 134 64 144 159 7 63 -10
111 -77 222 -34 56 -69 115 -79 133 -10 17 -29 49 -42 70 -50 80 -57 162 -16
199 34 31 102 22 417 -56 l303 -74 262 -264 c144 -145 276 -271 292 -279 48
-26 125 -22 169 7 67 46 95 144 60 213 -9 18 -141 157 -293 310 -151 153 -279
284 -284 292 -12 22 10 55 38 55 17 0 52 -29 123 -100 95 -96 117 -111 190
-126 12 -2 158 -38 325 -79 166 -41 320 -75 342 -75 93 0 173 96 159 188 -16
99 -53 125 -253 174 -182 46 -167 42 -256 63 -237 55 -684 166 -702 175 -43
18 -17 98 28 85 35 -9 54 -14 79 -19 14 -3 43 -10 65 -16 22 -6 58 -14 80 -19
22 -5 143 -34 269 -65 127 -31 233 -56 238 -56 28 0 -20 128 -63 167 -33 30
-58 38 -264 88 -99 24 -319 78 -490 120 -170 42 -321 79 -335 81 -81 15 -182
51 -225 80 -52 35 -123 105 -215 213 -30 35 -66 75 -80 90 -14 14 -59 64 -100
111 -41 47 -77 87 -80 90 -3 3 -41 46 -85 95 -44 50 -84 95 -90 101 -5 6 -39
44 -75 84 -36 40 -70 78 -75 84 -6 6 -84 94 -175 196 -91 102 -181 202 -200
223 -19 21 -39 45 -43 53 -4 8 -12 14 -18 14 -6 0 -9 -273 -9 -747z"/>
<path d="M1559 4419 c-30 -30 -19 -60 54 -143 33 -39 66 -75 71 -81 6 -5 24
-26 40 -45 42 -51 134 -157 185 -213 37 -40 50 -47 75 -45 34 3 59 39 48 69
-4 9 -32 46 -62 80 -30 35 -106 122 -168 194 -196 225 -200 227 -243 184z"/>
</g>
</svg>
